<?xml version="1.0" encoding="UTF-8"?>
<svg xmlns="http://www.w3.org/2000/svg" version="1.1" width="200" height="200" viewBox="0 0 200 200"><rect x="0" y="0" width="200" height="200" fill="#ffffff"/><g transform="scale(6.061)"><g transform="translate(2,2)"><path fill-rule="evenodd" d="M9 0L9 1L8 1L8 2L9 2L9 3L8 3L8 4L10 4L10 7L11 7L11 4L12 4L12 5L13 5L13 4L14 4L14 8L13 8L13 6L12 6L12 9L14 9L14 10L11 10L11 11L10 11L10 9L11 9L11 8L6 8L6 9L7 9L7 10L6 10L6 11L5 11L5 10L4 10L4 9L5 9L5 8L0 8L0 9L1 9L1 10L0 10L0 12L1 12L1 13L0 13L0 14L1 14L1 13L2 13L2 12L1 12L1 10L2 10L2 9L3 9L3 12L4 12L4 14L5 14L5 15L4 15L4 16L5 16L5 17L7 17L7 18L4 18L4 17L3 17L3 15L2 15L2 16L1 16L1 15L0 15L0 21L1 21L1 18L2 18L2 21L3 21L3 20L6 20L6 21L7 21L7 20L6 20L6 19L8 19L8 18L9 18L9 17L10 17L10 16L11 16L11 15L10 15L10 14L11 14L11 13L12 13L12 14L13 14L13 15L12 15L12 17L13 17L13 16L14 16L14 17L15 17L15 16L16 16L16 14L18 14L18 15L19 15L19 18L17 18L17 17L18 17L18 16L17 16L17 17L16 17L16 18L15 18L15 19L14 19L14 20L15 20L15 21L12 21L12 19L13 19L13 18L11 18L11 19L9 19L9 20L8 20L8 23L9 23L9 24L8 24L8 29L9 29L9 27L10 27L10 28L11 28L11 29L12 29L12 27L13 27L13 26L11 26L11 25L10 25L10 26L9 26L9 24L10 24L10 23L11 23L11 22L10 22L10 23L9 23L9 20L10 20L10 21L12 21L12 22L13 22L13 23L12 23L12 25L13 25L13 24L14 24L14 25L16 25L16 26L15 26L15 27L14 27L14 28L15 28L15 29L18 29L18 28L15 28L15 27L16 27L16 26L17 26L17 27L18 27L18 26L21 26L21 25L25 25L25 26L22 26L22 27L20 27L20 28L19 28L19 29L20 29L20 28L22 28L22 29L23 29L23 28L24 28L24 29L27 29L27 28L28 28L28 26L29 26L29 25L27 25L27 24L26 24L26 25L25 25L25 23L27 23L27 22L29 22L29 20L28 20L28 19L27 19L27 16L28 16L28 15L27 15L27 14L25 14L25 13L27 13L27 12L28 12L28 11L27 11L27 12L26 12L26 11L24 11L24 12L23 12L23 13L22 13L22 14L21 14L21 15L19 15L19 14L20 14L20 12L22 12L22 11L19 11L19 10L21 10L21 9L22 9L22 10L25 10L25 9L26 9L26 8L25 8L25 9L24 9L24 8L23 8L23 9L22 9L22 8L21 8L21 9L18 9L18 8L17 8L17 6L18 6L18 7L19 7L19 8L20 8L20 7L21 7L21 4L20 4L20 3L21 3L21 0L16 0L16 1L15 1L15 2L16 2L16 1L20 1L20 2L19 2L19 3L17 3L17 4L16 4L16 3L13 3L13 4L12 4L12 2L13 2L13 1L14 1L14 0L13 0L13 1L11 1L11 2L10 2L10 0ZM10 3L10 4L11 4L11 3ZM15 4L15 5L16 5L16 4ZM8 5L8 7L9 7L9 5ZM18 5L18 6L19 6L19 7L20 7L20 5ZM15 6L15 7L16 7L16 6ZM15 8L15 10L14 10L14 11L12 11L12 13L14 13L14 14L16 14L16 13L17 13L17 12L18 12L18 13L19 13L19 11L18 11L18 9L17 9L17 8ZM27 8L27 9L28 9L28 10L29 10L29 9L28 9L28 8ZM8 9L8 10L9 10L9 9ZM16 9L16 10L15 10L15 11L14 11L14 12L15 12L15 13L16 13L16 11L17 11L17 9ZM6 11L6 12L7 12L7 13L5 13L5 14L7 14L7 13L8 13L8 15L5 15L5 16L7 16L7 17L9 17L9 16L10 16L10 15L9 15L9 14L10 14L10 13L11 13L11 12L10 12L10 13L9 13L9 12L7 12L7 11ZM24 12L24 13L25 13L25 12ZM28 13L28 14L29 14L29 13ZM22 14L22 15L21 15L21 16L20 16L20 17L21 17L21 18L22 18L22 19L23 19L23 18L22 18L22 17L25 17L25 19L24 19L24 20L25 20L25 21L26 21L26 20L27 20L27 19L26 19L26 17L25 17L25 16L27 16L27 15L25 15L25 16L24 16L24 15L23 15L23 14ZM8 15L8 16L9 16L9 15ZM14 15L14 16L15 16L15 15ZM2 17L2 18L3 18L3 19L4 19L4 18L3 18L3 17ZM28 17L28 18L29 18L29 17ZM19 18L19 20L18 20L18 19L15 19L15 20L18 20L18 21L17 21L17 22L16 22L16 21L15 21L15 22L16 22L16 23L17 23L17 24L18 24L18 25L20 25L20 24L18 24L18 22L20 22L20 20L21 20L21 19L20 19L20 18ZM21 21L21 24L24 24L24 21ZM22 22L22 23L23 23L23 22ZM14 23L14 24L15 24L15 23ZM28 23L28 24L29 24L29 23ZM10 26L10 27L11 27L11 26ZM22 27L22 28L23 28L23 27ZM24 27L24 28L25 28L25 27ZM26 27L26 28L27 28L27 27ZM0 0L0 7L7 7L7 0ZM1 1L1 6L6 6L6 1ZM2 2L2 5L5 5L5 2ZM22 0L22 7L29 7L29 0ZM23 1L23 6L28 6L28 1ZM24 2L24 5L27 5L27 2ZM0 22L0 29L7 29L7 22ZM1 23L1 28L6 28L6 23ZM2 24L2 27L5 27L5 24Z" fill="#000000"/></g></g></svg>
