<?xml version="1.0" encoding="UTF-8"?>
<svg xmlns="http://www.w3.org/2000/svg" version="1.1" width="240" height="240" viewBox="0 0 240 240"><rect x="0" y="0" width="240" height="240" fill="#ffffff"/><g transform="scale(7.273)"><g transform="translate(2,2)"><g><g transform="translate(3.5,3.5)"><path fill-rule="evenodd" d="M-3.5 -3.5L3.5 -3.5L3.5 3.5L-3.5 3.5ZM-2.5 -2.5L-2.5 2.5L2.5 2.5L2.5 -2.5Z" fill="#000000"/><path fill-rule="evenodd" d="M-1.5 -1.5L1.5 -1.5L1.5 1.5L-1.5 1.5Z" fill="#000000"/></g></g><g><g transform="translate(25.5,3.5)"><g transform="rotate(90)"><path fill-rule="evenodd" d="M-3.5 -3.5L3.5 -3.5L3.5 3.5L-3.5 3.5ZM-2.5 -2.5L-2.5 2.5L2.5 2.5L2.5 -2.5Z" fill="#000000"/><path fill-rule="evenodd" d="M-1.5 -1.5L1.5 -1.5L1.5 1.5L-1.5 1.5Z" fill="#000000"/></g></g></g><g><g transform="translate(3.5,25.5)"><g transform="rotate(-90)"><path fill-rule="evenodd" d="M-3.5 -3.5L3.5 -3.5L3.5 3.5L-3.5 3.5ZM-2.5 -2.5L-2.5 2.5L2.5 2.5L2.5 -2.5Z" fill="#000000"/><path fill-rule="evenodd" d="M-1.5 -1.5L1.5 -1.5L1.5 1.5L-1.5 1.5Z" fill="#000000"/></g></g></g><path fill-rule="evenodd" d="M9 0L9 1L8 1L8 2L9 2L9 3L8 3L8 4L10 4L10 7L11 7L11 4L12 4L12 5L13 5L13 6L12 6L12 9L13 9L13 8L14 8L14 9L16 9L16 10L15 10L15 11L14 11L14 12L16 12L16 11L17 11L17 9L18 9L18 11L19 11L19 12L20 12L20 11L22 11L22 10L24 10L24 11L23 11L23 13L22 13L22 14L21 14L21 13L18 13L18 12L17 12L17 13L16 13L16 14L15 14L15 13L12 13L12 11L13 11L13 10L11 10L11 11L10 11L10 9L11 9L11 8L6 8L6 9L7 9L7 10L6 10L6 11L7 11L7 12L6 12L6 13L4 13L4 14L6 14L6 15L7 15L7 16L6 16L6 17L5 17L5 16L3 16L3 19L2 19L2 20L3 20L3 21L5 21L5 20L6 20L6 21L8 21L8 23L9 23L9 22L10 22L10 27L11 27L11 28L10 28L10 29L12 29L12 27L13 27L13 26L11 26L11 22L10 22L10 21L9 21L9 20L10 20L10 18L11 18L11 21L12 21L12 22L13 22L13 23L12 23L12 25L13 25L13 24L14 24L14 25L16 25L16 26L15 26L15 27L14 27L14 28L16 28L16 27L17 27L17 25L18 25L18 26L20 26L20 25L27 25L27 26L21 26L21 27L20 27L20 28L19 28L19 29L20 29L20 28L22 28L22 29L24 29L24 28L26 28L26 29L27 29L27 28L28 28L28 26L29 26L29 25L27 25L27 24L26 24L26 23L27 23L27 22L29 22L29 20L28 20L28 19L27 19L27 16L28 16L28 15L27 15L27 12L28 12L28 11L27 11L27 12L25 12L25 9L26 9L26 8L25 8L25 9L24 9L24 8L23 8L23 9L22 9L22 8L21 8L21 4L20 4L20 3L21 3L21 1L20 1L20 0L16 0L16 1L14 1L14 0L13 0L13 1L11 1L11 2L10 2L10 0ZM16 1L16 2L15 2L15 3L14 3L14 2L12 2L12 4L14 4L14 5L16 5L16 4L17 4L17 5L18 5L18 4L19 4L19 3L20 3L20 1L18 1L18 2L17 2L17 1ZM16 2L16 3L17 3L17 4L18 4L18 3L17 3L17 2ZM10 3L10 4L11 4L11 3ZM8 5L8 7L9 7L9 5ZM19 5L19 7L18 7L18 6L17 6L17 7L16 7L16 6L15 6L15 7L14 7L14 6L13 6L13 7L14 7L14 8L15 8L15 7L16 7L16 9L17 9L17 8L18 8L18 9L19 9L19 7L20 7L20 5ZM0 8L0 10L1 10L1 9L2 9L2 10L3 10L3 11L1 11L1 14L2 14L2 15L1 15L1 16L0 16L0 21L1 21L1 18L2 18L2 15L3 15L3 14L2 14L2 12L3 12L3 11L4 11L4 12L5 12L5 10L4 10L4 9L5 9L5 8ZM20 8L20 9L21 9L21 10L22 10L22 9L21 9L21 8ZM27 8L27 9L28 9L28 10L29 10L29 9L28 9L28 8ZM8 9L8 12L9 12L9 9ZM19 10L19 11L20 11L20 10ZM10 12L10 13L6 13L6 14L7 14L7 15L8 15L8 14L9 14L9 15L10 15L10 13L11 13L11 18L13 18L13 19L12 19L12 21L15 21L15 22L16 22L16 23L17 23L17 24L18 24L18 25L20 25L20 24L18 24L18 23L19 23L19 22L20 22L20 21L19 21L19 19L21 19L21 20L22 20L22 19L23 19L23 20L24 20L24 19L23 19L23 18L22 18L22 17L23 17L23 16L24 16L24 17L26 17L26 16L27 16L27 15L26 15L26 13L25 13L25 12L24 12L24 13L25 13L25 14L22 14L22 15L23 15L23 16L20 16L20 18L18 18L18 17L19 17L19 16L18 16L18 15L21 15L21 14L18 14L18 13L17 13L17 14L16 14L16 15L17 15L17 16L15 16L15 15L14 15L14 16L13 16L13 17L12 17L12 15L13 15L13 14L12 14L12 13L11 13L11 12ZM28 13L28 14L29 14L29 13ZM17 14L17 15L18 15L18 14ZM24 15L24 16L25 16L25 15ZM8 16L8 18L7 18L7 17L6 17L6 18L5 18L5 19L6 19L6 20L8 20L8 19L9 19L9 18L10 18L10 17L9 17L9 16ZM14 16L14 17L15 17L15 16ZM17 16L17 17L16 17L16 18L15 18L15 19L14 19L14 20L15 20L15 21L16 21L16 22L17 22L17 21L18 21L18 22L19 22L19 21L18 21L18 20L17 20L17 21L16 21L16 19L17 19L17 17L18 17L18 16ZM28 17L28 18L29 18L29 17ZM6 18L6 19L7 19L7 18ZM21 18L21 19L22 19L22 18ZM25 19L25 21L26 21L26 20L27 20L27 19ZM21 21L21 24L24 24L24 21ZM22 22L22 23L23 23L23 22ZM14 23L14 24L15 24L15 23ZM8 24L8 29L9 29L9 24ZM22 27L22 28L23 28L23 27ZM26 27L26 28L27 28L27 27Z" fill="#000000"/></g></g></svg>
