<?xml version="1.0" encoding="UTF-8"?>
<svg xmlns="http://www.w3.org/2000/svg" version="1.1" width="200" height="200" viewBox="0 0 200 200"><rect x="0" y="0" width="200" height="200" fill="#ffffff"/><g transform="scale(6.061)"><g transform="translate(2,2)"><path fill-rule="evenodd" d="M8 0L8 1L10 1L10 0ZM16 0L16 1L17 1L17 2L15 2L15 1L14 1L14 2L11 2L11 4L10 4L10 3L9 3L9 2L8 2L8 5L9 5L9 6L8 6L8 7L9 7L9 8L8 8L8 9L7 9L7 8L6 8L6 9L7 9L7 10L5 10L5 11L4 11L4 12L6 12L6 13L7 13L7 14L4 14L4 15L3 15L3 14L2 14L2 13L1 13L1 12L2 12L2 11L3 11L3 10L2 10L2 9L4 9L4 8L0 8L0 9L1 9L1 10L0 10L0 13L1 13L1 15L0 15L0 17L1 17L1 18L0 18L0 19L1 19L1 18L2 18L2 20L1 20L1 21L2 21L2 20L3 20L3 21L4 21L4 19L5 19L5 18L6 18L6 19L7 19L7 20L6 20L6 21L7 21L7 20L8 20L8 19L7 19L7 18L8 18L8 17L10 17L10 19L9 19L9 21L8 21L8 22L9 22L9 25L8 25L8 29L9 29L9 28L10 28L10 29L11 29L11 28L12 28L12 29L13 29L13 28L12 28L12 26L13 26L13 27L14 27L14 29L15 29L15 27L14 27L14 26L16 26L16 27L17 27L17 25L18 25L18 26L19 26L19 27L20 27L20 28L18 28L18 29L24 29L24 26L26 26L26 27L25 27L25 29L26 29L26 27L27 27L27 29L28 29L28 27L29 27L29 25L28 25L28 27L27 27L27 26L26 26L26 25L27 25L27 24L28 24L28 22L29 22L29 21L27 21L27 18L28 18L28 15L29 15L29 13L27 13L27 12L25 12L25 13L26 13L26 15L27 15L27 17L26 17L26 16L25 16L25 15L24 15L24 14L23 14L23 13L24 13L24 12L23 12L23 11L25 11L25 9L27 9L27 8L24 8L24 9L22 9L22 8L21 8L21 5L20 5L20 3L21 3L21 2L20 2L20 3L19 3L19 1L21 1L21 0ZM17 2L17 3L18 3L18 2ZM12 3L12 5L10 5L10 6L9 6L9 7L10 7L10 8L9 8L9 9L8 9L8 11L6 11L6 12L7 12L7 13L8 13L8 14L7 14L7 15L6 15L6 16L7 16L7 17L6 17L6 18L7 18L7 17L8 17L8 16L10 16L10 17L11 17L11 18L12 18L12 17L14 17L14 18L13 18L13 20L14 20L14 21L15 21L15 22L14 22L14 23L11 23L11 22L12 22L12 21L11 21L11 20L12 20L12 19L11 19L11 20L10 20L10 21L9 21L9 22L10 22L10 24L11 24L11 25L9 25L9 27L11 27L11 25L12 25L12 24L13 24L13 26L14 26L14 24L16 24L16 25L17 25L17 24L18 24L18 25L20 25L20 27L21 27L21 25L20 25L20 23L18 23L18 21L17 21L17 19L19 19L19 20L20 20L20 17L18 17L18 16L19 16L19 15L17 15L17 17L16 17L16 16L15 16L15 15L16 15L16 14L15 14L15 15L14 15L14 14L13 14L13 13L15 13L15 12L16 12L16 13L17 13L17 14L19 14L19 12L20 12L20 13L23 13L23 12L22 12L22 11L23 11L23 10L22 10L22 9L21 9L21 8L20 8L20 9L21 9L21 10L22 10L22 11L21 11L21 12L20 12L20 10L18 10L18 9L17 9L17 8L16 8L16 6L17 6L17 7L18 7L18 6L17 6L17 5L19 5L19 4L17 4L17 5L15 5L15 10L14 10L14 5L13 5L13 3ZM12 5L12 7L11 7L11 6L10 6L10 7L11 7L11 8L12 8L12 7L13 7L13 5ZM19 6L19 7L20 7L20 6ZM28 8L28 10L26 10L26 11L28 11L28 12L29 12L29 11L28 11L28 10L29 10L29 8ZM9 9L9 10L10 10L10 9ZM16 9L16 12L17 12L17 13L18 13L18 12L19 12L19 11L18 11L18 12L17 12L17 9ZM1 10L1 11L2 11L2 10ZM8 11L8 12L9 12L9 15L11 15L11 14L12 14L12 16L11 16L11 17L12 17L12 16L14 16L14 15L13 15L13 14L12 14L12 12L14 12L14 11L11 11L11 13L10 13L10 12L9 12L9 11ZM20 14L20 15L21 15L21 16L22 16L22 19L21 19L21 20L22 20L22 19L23 19L23 20L24 20L24 19L23 19L23 16L24 16L24 15L22 15L22 14ZM1 15L1 17L3 17L3 18L4 18L4 17L5 17L5 16L3 16L3 15ZM15 17L15 20L16 20L16 19L17 19L17 18L18 18L18 17L17 17L17 18L16 18L16 17ZM24 17L24 18L25 18L25 20L26 20L26 18L25 18L25 17ZM10 21L10 22L11 22L11 21ZM16 21L16 23L17 23L17 21ZM19 21L19 22L20 22L20 21ZM21 21L21 24L24 24L24 21ZM22 22L22 23L23 23L23 22ZM26 22L26 24L25 24L25 25L26 25L26 24L27 24L27 22ZM22 25L22 28L23 28L23 25ZM16 28L16 29L17 29L17 28ZM0 0L0 7L7 7L7 0ZM1 1L1 6L6 6L6 1ZM2 2L2 5L5 5L5 2ZM22 0L22 7L29 7L29 0ZM23 1L23 6L28 6L28 1ZM24 2L24 5L27 5L27 2ZM0 22L0 29L7 29L7 22ZM1 23L1 28L6 28L6 23ZM2 24L2 27L5 27L5 24Z" fill="#000000"/></g></g></svg>
