<?xml version="1.0" encoding="UTF-8"?>
<svg xmlns="http://www.w3.org/2000/svg" version="1.1" width="200" height="200" viewBox="0 0 200 200"><rect x="0" y="0" width="200" height="200" fill="#ffffff"/><g transform="scale(6.897)"><g transform="translate(2,2)"><path fill-rule="evenodd" d="M9 0L9 1L8 1L8 2L9 2L9 3L8 3L8 4L10 4L10 7L11 7L11 8L6 8L6 9L5 9L5 8L0 8L0 9L2 9L2 10L0 10L0 11L1 11L1 13L0 13L0 17L1 17L1 13L2 13L2 16L3 16L3 17L4 17L4 16L5 16L5 17L7 17L7 16L6 16L6 15L7 15L7 14L8 14L8 15L10 15L10 16L9 16L9 17L8 17L8 19L9 19L9 18L10 18L10 17L11 17L11 18L12 18L12 19L14 19L14 20L12 20L12 21L11 21L11 19L10 19L10 20L8 20L8 25L9 25L9 22L12 22L12 21L13 21L13 22L14 22L14 24L12 24L12 23L11 23L11 25L14 25L14 24L15 24L15 22L16 22L16 21L17 21L17 23L16 23L16 24L17 24L17 23L18 23L18 24L19 24L19 25L25 25L25 21L24 21L24 20L25 20L25 18L22 18L22 17L23 17L23 16L22 16L22 17L21 17L21 15L22 15L22 13L23 13L23 15L24 15L24 16L25 16L25 14L24 14L24 13L25 13L25 10L24 10L24 8L23 8L23 11L24 11L24 12L22 12L22 13L21 13L21 12L19 12L19 11L22 11L22 10L20 10L20 8L19 8L19 11L18 11L18 10L17 10L17 9L18 9L18 8L15 8L15 9L16 9L16 10L14 10L14 8L12 8L12 7L13 7L13 6L14 6L14 7L15 7L15 6L16 6L16 7L17 7L17 4L16 4L16 3L15 3L15 2L17 2L17 0L16 0L16 1L15 1L15 2L14 2L14 3L12 3L12 2L13 2L13 1L11 1L11 2L10 2L10 0ZM10 3L10 4L11 4L11 7L12 7L12 6L13 6L13 5L12 5L12 4L11 4L11 3ZM14 4L14 5L16 5L16 4ZM8 5L8 7L9 7L9 5ZM21 8L21 9L22 9L22 8ZM6 9L6 10L5 10L5 11L6 11L6 12L7 12L7 11L9 11L9 10L7 10L7 9ZM10 9L10 11L11 11L11 12L10 12L10 13L8 13L8 14L10 14L10 15L11 15L11 17L12 17L12 18L13 18L13 17L12 17L12 16L14 16L14 15L15 15L15 14L16 14L16 13L12 13L12 14L10 14L10 13L11 13L11 12L17 12L17 10L16 10L16 11L13 11L13 9L12 9L12 10L11 10L11 9ZM3 10L3 11L2 11L2 12L3 12L3 11L4 11L4 10ZM6 10L6 11L7 11L7 10ZM4 12L4 13L3 13L3 14L4 14L4 15L5 15L5 12ZM6 13L6 14L7 14L7 13ZM17 13L17 15L16 15L16 16L17 16L17 15L18 15L18 14L19 14L19 13ZM20 13L20 14L21 14L21 13ZM13 14L13 15L14 15L14 14ZM14 17L14 18L15 18L15 20L16 20L16 17ZM17 17L17 20L20 20L20 17ZM18 18L18 19L19 19L19 18ZM21 18L21 19L22 19L22 20L21 20L21 21L22 21L22 20L24 20L24 19L22 19L22 18ZM14 21L14 22L15 22L15 21ZM19 21L19 22L18 22L18 23L21 23L21 22L20 22L20 21ZM23 22L23 23L22 23L22 24L24 24L24 22ZM0 0L0 7L7 7L7 0ZM1 1L1 6L6 6L6 1ZM2 2L2 5L5 5L5 2ZM18 0L18 7L25 7L25 0ZM19 1L19 6L24 6L24 1ZM20 2L20 5L23 5L23 2ZM0 18L0 25L7 25L7 18ZM1 19L1 24L6 24L6 19ZM2 20L2 23L5 23L5 20Z" fill="#000000"/></g></g></svg>
