<?xml version="1.0" encoding="UTF-8"?>
<svg xmlns="http://www.w3.org/2000/svg" version="1.1" width="200" height="200" viewBox="0 0 200 200"><rect x="0" y="0" width="200" height="200" fill="#ffffff"/><g transform="scale(6.061)"><g transform="translate(2,2)"><path fill-rule="evenodd" d="M9 0L9 1L8 1L8 2L9 2L9 3L8 3L8 4L10 4L10 7L11 7L11 4L12 4L12 5L13 5L13 6L12 6L12 9L13 9L13 8L14 8L14 9L16 9L16 10L15 10L15 11L14 11L14 12L16 12L16 10L17 10L17 11L18 11L18 10L21 10L21 9L22 9L22 10L25 10L25 9L26 9L26 8L25 8L25 9L24 9L24 8L23 8L23 9L22 9L22 8L21 8L21 9L18 9L18 8L17 8L17 6L18 6L18 7L19 7L19 8L20 8L20 7L21 7L21 4L20 4L20 3L21 3L21 0L15 0L15 1L20 1L20 2L19 2L19 3L17 3L17 2L16 2L16 3L17 3L17 5L16 5L16 4L12 4L12 2L13 2L13 1L11 1L11 2L10 2L10 0ZM14 2L14 3L15 3L15 2ZM10 3L10 4L11 4L11 3ZM8 5L8 7L9 7L9 5ZM18 5L18 6L19 6L19 7L20 7L20 5ZM13 6L13 7L14 7L14 8L15 8L15 7L16 7L16 6L15 6L15 7L14 7L14 6ZM0 8L0 9L1 9L1 10L0 10L0 11L2 11L2 13L3 13L3 12L4 12L4 13L5 13L5 11L7 11L7 10L8 10L8 11L9 11L9 13L8 13L8 12L6 12L6 13L7 13L7 14L2 14L2 15L1 15L1 13L0 13L0 15L1 15L1 16L0 16L0 21L1 21L1 18L2 18L2 19L3 19L3 20L2 20L2 21L3 21L3 20L5 20L5 21L7 21L7 20L10 20L10 18L11 18L11 21L8 21L8 23L9 23L9 24L8 24L8 29L9 29L9 28L10 28L10 29L12 29L12 27L13 27L13 26L11 26L11 25L9 25L9 24L11 24L11 21L12 21L12 22L13 22L13 23L12 23L12 25L13 25L13 24L14 24L14 25L16 25L16 26L15 26L15 27L14 27L14 28L16 28L16 26L17 26L17 27L19 27L19 26L21 26L21 25L25 25L25 26L22 26L22 27L20 27L20 28L19 28L19 29L20 29L20 28L22 28L22 29L23 29L23 28L24 28L24 29L27 29L27 28L28 28L28 26L29 26L29 25L28 25L28 24L29 24L29 23L28 23L28 24L26 24L26 25L25 25L25 23L27 23L27 22L29 22L29 20L28 20L28 19L27 19L27 16L28 16L28 15L27 15L27 14L25 14L25 13L27 13L27 12L28 12L28 11L27 11L27 12L26 12L26 11L24 11L24 12L23 12L23 13L22 13L22 14L21 14L21 15L19 15L19 18L20 18L20 19L21 19L21 20L20 20L20 22L19 22L19 21L18 21L18 20L19 20L19 19L18 19L18 20L17 20L17 17L18 17L18 16L17 16L17 17L16 17L16 16L14 16L14 15L16 15L16 14L17 14L17 15L18 15L18 14L20 14L20 12L22 12L22 11L19 11L19 13L18 13L18 12L17 12L17 13L16 13L16 14L15 14L15 13L12 13L12 11L13 11L13 10L11 10L11 11L10 11L10 9L11 9L11 8L6 8L6 9L5 9L5 8ZM27 8L27 9L28 9L28 10L29 10L29 9L28 9L28 8ZM2 9L2 11L5 11L5 9L4 9L4 10L3 10L3 9ZM6 9L6 10L7 10L7 9ZM17 9L17 10L18 10L18 9ZM10 12L10 13L9 13L9 14L10 14L10 13L11 13L11 18L13 18L13 19L12 19L12 21L15 21L15 22L16 22L16 21L17 21L17 23L16 23L16 25L17 25L17 26L19 26L19 25L20 25L20 24L19 24L19 23L18 23L18 21L17 21L17 20L14 20L14 19L15 19L15 18L16 18L16 17L14 17L14 16L13 16L13 17L12 17L12 15L13 15L13 14L12 14L12 13L11 13L11 12ZM24 12L24 13L25 13L25 12ZM28 13L28 14L29 14L29 13ZM7 14L7 15L6 15L6 16L7 16L7 17L5 17L5 18L7 18L7 19L5 19L5 20L7 20L7 19L9 19L9 17L10 17L10 16L7 16L7 15L8 15L8 14ZM22 14L22 15L21 15L21 16L20 16L20 17L21 17L21 18L22 18L22 19L23 19L23 18L22 18L22 17L25 17L25 19L24 19L24 20L25 20L25 21L26 21L26 20L27 20L27 19L26 19L26 17L25 17L25 16L27 16L27 15L25 15L25 16L24 16L24 15L23 15L23 14ZM3 15L3 17L4 17L4 15ZM1 16L1 17L2 17L2 16ZM28 17L28 18L29 18L29 17ZM3 18L3 19L4 19L4 18ZM21 21L21 24L24 24L24 21ZM9 22L9 23L10 23L10 22ZM22 22L22 23L23 23L23 22ZM14 23L14 24L15 24L15 23ZM17 24L17 25L18 25L18 24ZM9 26L9 27L10 27L10 26ZM22 27L22 28L23 28L23 27ZM24 27L24 28L25 28L25 27ZM26 27L26 28L27 28L27 27ZM17 28L17 29L18 29L18 28ZM0 0L0 7L7 7L7 0ZM1 1L1 6L6 6L6 1ZM2 2L2 5L5 5L5 2ZM22 0L22 7L29 7L29 0ZM23 1L23 6L28 6L28 1ZM24 2L24 5L27 5L27 2ZM0 22L0 29L7 29L7 22ZM1 23L1 28L6 28L6 23ZM2 24L2 27L5 27L5 24Z" fill="#000000"/></g></g></svg>
