<?xml version="1.0" encoding="UTF-8"?>
<svg xmlns="http://www.w3.org/2000/svg" version="1.1" width="200" height="200" viewBox="0 0 200 200"><rect x="0" y="0" width="200" height="200" fill="#ffffff"/><g transform="scale(6.061)"><g transform="translate(2,2)"><path fill-rule="evenodd" d="M8 0L8 1L9 1L9 2L8 2L8 5L9 5L9 4L11 4L11 5L10 5L10 10L8 10L8 9L9 9L9 8L8 8L8 9L7 9L7 8L6 8L6 9L7 9L7 10L5 10L5 12L6 12L6 13L5 13L5 14L4 14L4 15L5 15L5 17L8 17L8 19L7 19L7 18L4 18L4 20L3 20L3 19L2 19L2 20L1 20L1 21L2 21L2 20L3 20L3 21L7 21L7 20L8 20L8 19L9 19L9 18L11 18L11 17L10 17L10 16L12 16L12 17L13 17L13 16L12 16L12 14L13 14L13 15L14 15L14 18L13 18L13 21L15 21L15 19L16 19L16 17L15 17L15 16L16 16L16 15L14 15L14 14L18 14L18 12L17 12L17 11L15 11L15 12L14 12L14 14L13 14L13 12L12 12L12 13L11 13L11 11L14 11L14 8L13 8L13 6L14 6L14 7L15 7L15 5L17 5L17 6L16 6L16 7L17 7L17 8L16 8L16 10L20 10L20 12L19 12L19 16L18 16L18 18L17 18L17 21L16 21L16 23L17 23L17 21L20 21L20 22L19 22L19 23L18 23L18 24L17 24L17 25L16 25L16 24L15 24L15 22L14 22L14 23L9 23L9 24L10 24L10 25L11 25L11 26L12 26L12 28L10 28L10 27L9 27L9 25L8 25L8 29L9 29L9 28L10 28L10 29L12 29L12 28L14 28L14 27L15 27L15 28L17 28L17 25L18 25L18 24L19 24L19 23L20 23L20 25L19 25L19 27L20 27L20 28L18 28L18 29L24 29L24 26L26 26L26 27L25 27L25 29L26 29L26 27L27 27L27 29L28 29L28 27L29 27L29 25L28 25L28 27L27 27L27 26L26 26L26 25L27 25L27 24L26 24L26 22L27 22L27 23L28 23L28 22L29 22L29 21L27 21L27 18L28 18L28 15L29 15L29 13L27 13L27 12L25 12L25 13L26 13L26 15L27 15L27 17L26 17L26 16L25 16L25 15L24 15L24 14L23 14L23 13L24 13L24 12L23 12L23 11L25 11L25 9L27 9L27 8L24 8L24 9L22 9L22 8L21 8L21 5L20 5L20 3L21 3L21 2L20 2L20 3L19 3L19 1L21 1L21 0L16 0L16 1L17 1L17 2L18 2L18 3L14 3L14 2L15 2L15 1L14 1L14 0L12 0L12 1L11 1L11 0L10 0L10 1L9 1L9 0ZM13 1L13 2L11 2L11 4L12 4L12 3L13 3L13 2L14 2L14 1ZM13 4L13 5L12 5L12 6L11 6L11 8L12 8L12 6L13 6L13 5L14 5L14 4ZM17 4L17 5L19 5L19 4ZM8 6L8 7L9 7L9 6ZM17 6L17 7L18 7L18 6ZM19 6L19 7L20 7L20 6ZM0 8L0 9L3 9L3 10L2 10L2 11L1 11L1 10L0 10L0 12L2 12L2 13L0 13L0 15L1 15L1 17L2 17L2 18L3 18L3 17L4 17L4 16L3 16L3 13L4 13L4 8ZM20 8L20 9L21 9L21 10L22 10L22 11L21 11L21 12L20 12L20 13L23 13L23 12L22 12L22 11L23 11L23 10L22 10L22 9L21 9L21 8ZM28 8L28 10L26 10L26 11L28 11L28 12L29 12L29 11L28 11L28 10L29 10L29 8ZM11 9L11 10L12 10L12 9ZM6 11L6 12L8 12L8 11ZM6 13L6 14L5 14L5 15L6 15L6 16L10 16L10 15L6 15L6 14L8 14L8 13ZM9 13L9 14L11 14L11 13ZM1 14L1 15L2 15L2 14ZM20 14L20 15L21 15L21 16L22 16L22 19L21 19L21 20L22 20L22 19L23 19L23 20L24 20L24 19L23 19L23 16L24 16L24 15L22 15L22 14ZM19 17L19 20L20 20L20 17ZM24 17L24 18L25 18L25 20L26 20L26 18L25 18L25 17ZM0 18L0 19L1 19L1 18ZM5 19L5 20L7 20L7 19ZM11 19L11 20L9 20L9 21L8 21L8 22L9 22L9 21L11 21L11 20L12 20L12 19ZM21 21L21 24L24 24L24 21ZM22 22L22 23L23 23L23 22ZM12 24L12 26L13 26L13 27L14 27L14 26L15 26L15 27L16 27L16 26L15 26L15 24ZM25 24L25 25L26 25L26 24ZM13 25L13 26L14 26L14 25ZM20 25L20 27L21 27L21 25ZM22 25L22 28L23 28L23 25ZM0 0L0 7L7 7L7 0ZM1 1L1 6L6 6L6 1ZM2 2L2 5L5 5L5 2ZM22 0L22 7L29 7L29 0ZM23 1L23 6L28 6L28 1ZM24 2L24 5L27 5L27 2ZM0 22L0 29L7 29L7 22ZM1 23L1 28L6 28L6 23ZM2 24L2 27L5 27L5 24Z" fill="#000000"/></g></g></svg>
