<?xml version="1.0" encoding="UTF-8"?>
<svg xmlns="http://www.w3.org/2000/svg" version="1.1" width="200" height="200" viewBox="0 0 200 200"><rect x="0" y="0" width="200" height="200" fill="#ffffff"/><g transform="scale(6.061)"><g transform="translate(2,2)"><path fill-rule="evenodd" d="M8 0L8 1L10 1L10 0ZM15 0L15 1L14 1L14 2L11 2L11 4L10 4L10 3L9 3L9 2L8 2L8 5L9 5L9 6L8 6L8 7L9 7L9 8L8 8L8 11L7 11L7 10L5 10L5 9L4 9L4 8L0 8L0 9L4 9L4 10L2 10L2 11L0 11L0 13L1 13L1 14L0 14L0 15L3 15L3 16L5 16L5 15L7 15L7 16L6 16L6 17L5 17L5 18L4 18L4 17L2 17L2 16L0 16L0 17L1 17L1 18L0 18L0 19L1 19L1 18L2 18L2 20L1 20L1 21L4 21L4 19L5 19L5 21L8 21L8 22L9 22L9 25L8 25L8 29L9 29L9 28L10 28L10 29L11 29L11 28L12 28L12 29L13 29L13 28L12 28L12 26L13 26L13 27L14 27L14 29L15 29L15 28L16 28L16 29L17 29L17 26L18 26L18 24L19 24L19 23L20 23L20 25L19 25L19 27L20 27L20 28L18 28L18 29L24 29L24 26L26 26L26 27L25 27L25 29L26 29L26 27L27 27L27 29L28 29L28 27L29 27L29 25L28 25L28 24L29 24L29 23L28 23L28 22L29 22L29 21L27 21L27 18L28 18L28 15L29 15L29 13L27 13L27 12L25 12L25 13L26 13L26 15L27 15L27 17L26 17L26 16L25 16L25 15L24 15L24 14L23 14L23 13L24 13L24 12L23 12L23 11L25 11L25 9L27 9L27 8L24 8L24 9L22 9L22 8L21 8L21 5L20 5L20 3L21 3L21 2L20 2L20 3L19 3L19 1L21 1L21 0ZM16 1L16 3L12 3L12 5L10 5L10 6L9 6L9 7L10 7L10 8L9 8L9 9L10 9L10 10L9 10L9 11L8 11L8 12L7 12L7 11L5 11L5 10L4 10L4 11L3 11L3 12L4 12L4 13L2 13L2 14L3 14L3 15L5 15L5 14L4 14L4 13L6 13L6 14L7 14L7 15L9 15L9 16L7 16L7 17L6 17L6 18L5 18L5 19L6 19L6 20L7 20L7 19L8 19L8 21L9 21L9 22L10 22L10 23L11 23L11 25L9 25L9 27L10 27L10 28L11 28L11 27L10 27L10 26L11 26L11 25L12 25L12 24L13 24L13 26L14 26L14 27L16 27L16 26L14 26L14 24L16 24L16 25L17 25L17 24L18 24L18 23L17 23L17 24L16 24L16 21L15 21L15 15L16 15L16 20L17 20L17 19L18 19L18 18L17 18L17 17L18 17L18 16L19 16L19 12L20 12L20 13L23 13L23 12L22 12L22 11L23 11L23 10L22 10L22 9L21 9L21 8L20 8L20 9L21 9L21 10L22 10L22 11L21 11L21 12L20 12L20 10L16 10L16 12L12 12L12 14L11 14L11 16L10 16L10 13L11 13L11 11L14 11L14 10L15 10L15 9L16 9L16 8L17 8L17 7L18 7L18 6L17 6L17 5L19 5L19 4L16 4L16 3L18 3L18 2L17 2L17 1ZM13 4L13 5L12 5L12 7L11 7L11 6L10 6L10 7L11 7L11 8L12 8L12 7L13 7L13 9L15 9L15 5L14 5L14 4ZM13 5L13 7L14 7L14 5ZM16 6L16 7L17 7L17 6ZM19 6L19 7L20 7L20 6ZM6 8L6 9L7 9L7 8ZM28 8L28 10L26 10L26 11L28 11L28 12L29 12L29 11L28 11L28 10L29 10L29 8ZM4 11L4 12L5 12L5 11ZM6 12L6 13L7 13L7 14L9 14L9 13L10 13L10 12L8 12L8 13L7 13L7 12ZM17 12L17 14L18 14L18 12ZM13 13L13 14L12 14L12 16L11 16L11 17L12 17L12 18L11 18L11 19L10 19L10 20L9 20L9 21L10 21L10 22L11 22L11 23L14 23L14 22L15 22L15 21L14 21L14 20L13 20L13 18L14 18L14 17L12 17L12 16L14 16L14 15L15 15L15 14L14 14L14 13ZM13 14L13 15L14 15L14 14ZM20 14L20 15L21 15L21 16L22 16L22 19L21 19L21 20L22 20L22 19L23 19L23 20L24 20L24 19L23 19L23 16L24 16L24 15L22 15L22 14ZM7 17L7 18L6 18L6 19L7 19L7 18L10 18L10 17ZM19 17L19 20L20 20L20 17ZM24 17L24 18L25 18L25 20L26 20L26 18L25 18L25 17ZM11 19L11 20L12 20L12 19ZM11 21L11 22L12 22L12 21ZM19 21L19 22L20 22L20 21ZM21 21L21 24L24 24L24 21ZM22 22L22 23L23 23L23 22ZM26 22L26 24L25 24L25 25L26 25L26 26L27 26L27 27L28 27L28 25L26 25L26 24L27 24L27 22ZM20 25L20 27L21 27L21 25ZM22 25L22 28L23 28L23 25ZM0 0L0 7L7 7L7 0ZM1 1L1 6L6 6L6 1ZM2 2L2 5L5 5L5 2ZM22 0L22 7L29 7L29 0ZM23 1L23 6L28 6L28 1ZM24 2L24 5L27 5L27 2ZM0 22L0 29L7 29L7 22ZM1 23L1 28L6 28L6 23ZM2 24L2 27L5 27L5 24Z" fill="#000000"/></g></g></svg>
