<?xml version="1.0" encoding="UTF-8"?>
<svg xmlns="http://www.w3.org/2000/svg" version="1.1" width="200" height="200" viewBox="0 0 200 200"><rect x="0" y="0" width="200" height="200" fill="#ffffff"/><g transform="scale(6.897)"><g transform="translate(2,2)"><path fill-rule="evenodd" d="M8 0L8 1L9 1L9 0ZM10 0L10 2L9 2L9 5L10 5L10 8L11 8L11 6L12 6L12 9L8 9L8 10L9 10L9 11L7 11L7 10L6 10L6 11L7 11L7 12L6 12L6 13L4 13L4 11L5 11L5 8L3 8L3 9L2 9L2 8L0 8L0 9L2 9L2 10L1 10L1 11L0 11L0 12L1 12L1 11L2 11L2 14L1 14L1 13L0 13L0 17L1 17L1 15L2 15L2 17L4 17L4 16L5 16L5 17L7 17L7 16L9 16L9 17L8 17L8 18L9 18L9 17L10 17L10 18L11 18L11 19L10 19L10 21L9 21L9 20L8 20L8 22L9 22L9 23L8 23L8 25L11 25L11 24L10 24L10 23L12 23L12 21L13 21L13 22L15 22L15 21L16 21L16 22L19 22L19 21L21 21L21 16L22 16L22 18L24 18L24 21L25 21L25 18L24 18L24 16L25 16L25 14L24 14L24 13L25 13L25 10L24 10L24 9L25 9L25 8L24 8L24 9L19 9L19 8L18 8L18 9L19 9L19 11L18 11L18 13L19 13L19 11L20 11L20 10L21 10L21 12L24 12L24 13L23 13L23 14L21 14L21 13L20 13L20 15L19 15L19 14L18 14L18 15L16 15L16 14L17 14L17 13L16 13L16 12L17 12L17 11L16 11L16 7L17 7L17 6L16 6L16 7L15 7L15 4L14 4L14 3L15 3L15 0L13 0L13 1L12 1L12 2L13 2L13 3L11 3L11 0ZM16 1L16 5L17 5L17 1ZM10 3L10 5L12 5L12 6L13 6L13 7L14 7L14 6L13 6L13 4L11 4L11 3ZM8 6L8 8L9 8L9 6ZM6 8L6 9L7 9L7 8ZM13 8L13 9L12 9L12 10L13 10L13 9L15 9L15 8ZM3 9L3 10L4 10L4 9ZM14 10L14 11L9 11L9 12L12 12L12 14L11 14L11 13L8 13L8 14L10 14L10 17L11 17L11 18L12 18L12 19L14 19L14 20L13 20L13 21L14 21L14 20L15 20L15 19L16 19L16 18L15 18L15 16L16 16L16 15L15 15L15 14L13 14L13 13L15 13L15 10ZM22 10L22 11L24 11L24 10ZM3 13L3 16L4 16L4 15L5 15L5 16L7 16L7 15L6 15L6 14L7 14L7 13L6 13L6 14L4 14L4 13ZM11 15L11 16L12 16L12 17L13 17L13 18L14 18L14 16L12 16L12 15ZM20 15L20 16L21 16L21 15ZM23 15L23 16L24 16L24 15ZM17 17L17 20L20 20L20 17ZM18 18L18 19L19 19L19 18ZM10 21L10 22L11 22L11 21ZM20 22L20 23L17 23L17 24L16 24L16 23L14 23L14 25L15 25L15 24L16 24L16 25L18 25L18 24L21 24L21 25L22 25L22 24L24 24L24 25L25 25L25 22ZM21 23L21 24L22 24L22 23ZM12 24L12 25L13 25L13 24ZM0 0L0 7L7 7L7 0ZM1 1L1 6L6 6L6 1ZM2 2L2 5L5 5L5 2ZM18 0L18 7L25 7L25 0ZM19 1L19 6L24 6L24 1ZM20 2L20 5L23 5L23 2ZM0 18L0 25L7 25L7 18ZM1 19L1 24L6 24L6 19ZM2 20L2 23L5 23L5 20Z" fill="#000000"/></g></g></svg>
