<?xml version="1.0" encoding="UTF-8"?>
<svg xmlns="http://www.w3.org/2000/svg" version="1.1" width="200" height="200" viewBox="0 0 200 200"><rect x="0" y="0" width="200" height="200" fill="#ffffff"/><g transform="scale(6.061)"><g transform="translate(2,2)"><path fill-rule="evenodd" d="M8 0L8 1L9 1L9 2L8 2L8 5L9 5L9 4L11 4L11 5L10 5L10 10L9 10L9 8L8 8L8 9L7 9L7 8L6 8L6 9L4 9L4 8L0 8L0 9L3 9L3 10L2 10L2 11L1 11L1 10L0 10L0 11L1 11L1 12L0 12L0 15L1 15L1 16L0 16L0 17L1 17L1 18L0 18L0 19L1 19L1 18L2 18L2 20L1 20L1 21L2 21L2 20L3 20L3 19L4 19L4 21L5 21L5 19L8 19L8 18L10 18L10 20L6 20L6 21L8 21L8 22L11 22L11 20L12 20L12 19L11 19L11 17L9 17L9 16L10 16L10 15L11 15L11 16L12 16L12 17L14 17L14 16L12 16L12 14L13 14L13 15L15 15L15 16L16 16L16 17L15 17L15 18L13 18L13 19L16 19L16 20L17 20L17 21L16 21L16 23L15 23L15 20L14 20L14 22L13 22L13 23L11 23L11 26L10 26L10 27L11 27L11 26L12 26L12 28L11 28L11 29L12 29L12 28L14 28L14 27L15 27L15 26L17 26L17 25L18 25L18 24L17 24L17 25L13 25L13 26L12 26L12 24L14 24L14 23L15 23L15 24L16 24L16 23L20 23L20 25L19 25L19 27L18 27L18 29L24 29L24 26L26 26L26 27L25 27L25 29L26 29L26 27L27 27L27 29L28 29L28 27L29 27L29 24L26 24L26 22L27 22L27 23L28 23L28 22L29 22L29 21L27 21L27 18L28 18L28 15L29 15L29 13L27 13L27 12L25 12L25 13L26 13L26 15L27 15L27 17L26 17L26 16L25 16L25 15L24 15L24 14L23 14L23 13L24 13L24 12L23 12L23 11L25 11L25 9L27 9L27 8L24 8L24 9L22 9L22 8L21 8L21 5L20 5L20 3L21 3L21 2L20 2L20 3L19 3L19 1L21 1L21 0L16 0L16 2L15 2L15 0L14 0L14 1L13 1L13 0L12 0L12 1L11 1L11 0L10 0L10 1L9 1L9 0ZM11 2L11 4L12 4L12 3L13 3L13 2ZM14 2L14 3L15 3L15 4L13 4L13 5L12 5L12 6L11 6L11 8L12 8L12 6L13 6L13 9L14 9L14 10L13 10L13 11L11 11L11 13L9 13L9 12L8 12L8 11L6 11L6 10L7 10L7 9L6 9L6 10L5 10L5 11L3 11L3 12L1 12L1 14L2 14L2 15L3 15L3 16L2 16L2 17L3 17L3 16L4 16L4 18L5 18L5 17L6 17L6 18L7 18L7 17L6 17L6 16L9 16L9 14L11 14L11 13L12 13L12 12L13 12L13 11L14 11L14 10L15 10L15 13L17 13L17 14L19 14L19 12L20 12L20 13L23 13L23 12L22 12L22 11L23 11L23 10L22 10L22 9L21 9L21 8L20 8L20 9L21 9L21 10L22 10L22 11L21 11L21 12L20 12L20 10L19 10L19 11L18 11L18 10L16 10L16 8L17 8L17 7L18 7L18 6L17 6L17 5L19 5L19 4L17 4L17 3L18 3L18 2L16 2L16 3L15 3L15 2ZM15 4L15 5L17 5L17 4ZM8 6L8 7L9 7L9 6ZM14 6L14 9L15 9L15 8L16 8L16 7L17 7L17 6L16 6L16 7L15 7L15 6ZM19 6L19 7L20 7L20 6ZM28 8L28 10L26 10L26 11L28 11L28 12L29 12L29 11L28 11L28 10L29 10L29 8ZM11 9L11 10L12 10L12 9ZM5 11L5 12L6 12L6 13L7 13L7 14L5 14L5 13L4 13L4 12L3 12L3 13L2 13L2 14L3 14L3 15L4 15L4 16L5 16L5 15L8 15L8 12L6 12L6 11ZM16 11L16 12L17 12L17 13L18 13L18 12L17 12L17 11ZM13 13L13 14L14 14L14 13ZM4 14L4 15L5 15L5 14ZM15 14L15 15L16 15L16 14ZM20 14L20 15L21 15L21 16L22 16L22 19L21 19L21 20L22 20L22 19L23 19L23 20L24 20L24 19L23 19L23 16L24 16L24 15L22 15L22 14ZM17 15L17 17L16 17L16 18L18 18L18 16L19 16L19 15ZM19 17L19 19L18 19L18 20L20 20L20 17ZM24 17L24 18L25 18L25 20L26 20L26 18L25 18L25 17ZM17 21L17 22L20 22L20 21ZM21 21L21 24L24 24L24 21ZM22 22L22 23L23 23L23 22ZM9 24L9 25L8 25L8 29L9 29L9 25L10 25L10 24ZM25 24L25 25L26 25L26 26L27 26L27 27L28 27L28 25L26 25L26 24ZM20 25L20 27L19 27L19 28L20 28L20 27L21 27L21 25ZM22 25L22 28L23 28L23 25ZM13 26L13 27L14 27L14 26ZM16 28L16 29L17 29L17 28ZM0 0L0 7L7 7L7 0ZM1 1L1 6L6 6L6 1ZM2 2L2 5L5 5L5 2ZM22 0L22 7L29 7L29 0ZM23 1L23 6L28 6L28 1ZM24 2L24 5L27 5L27 2ZM0 22L0 29L7 29L7 22ZM1 23L1 28L6 28L6 23ZM2 24L2 27L5 27L5 24Z" fill="#000000"/></g></g></svg>
