<?xml version="1.0" encoding="UTF-8"?>
<svg xmlns="http://www.w3.org/2000/svg" version="1.1" width="200" height="200" viewBox="0 0 200 200"><rect x="0" y="0" width="200" height="200" fill="#ffffff"/><g transform="scale(6.061)"><g transform="translate(2,2)"><path fill-rule="evenodd" d="M8 0L8 1L10 1L10 0ZM16 0L16 2L17 2L17 1L18 1L18 3L17 3L17 4L16 4L16 3L15 3L15 2L11 2L11 4L10 4L10 3L9 3L9 2L8 2L8 5L9 5L9 6L8 6L8 7L9 7L9 8L8 8L8 9L7 9L7 8L6 8L6 9L7 9L7 10L5 10L5 9L4 9L4 8L0 8L0 10L1 10L1 9L2 9L2 11L3 11L3 9L4 9L4 11L5 11L5 13L4 13L4 14L3 14L3 18L5 18L5 17L7 17L7 18L6 18L6 19L7 19L7 18L8 18L8 19L9 19L9 18L10 18L10 20L11 20L11 21L10 21L10 23L9 23L9 25L8 25L8 29L9 29L9 28L12 28L12 29L13 29L13 28L12 28L12 26L13 26L13 27L14 27L14 29L15 29L15 28L16 28L16 29L17 29L17 27L14 27L14 26L17 26L17 25L18 25L18 24L17 24L17 21L18 21L18 22L19 22L19 23L20 23L20 25L19 25L19 27L18 27L18 29L23 29L23 28L24 28L24 29L25 29L25 28L26 28L26 27L27 27L27 29L28 29L28 27L29 27L29 25L28 25L28 27L27 27L27 24L29 24L29 23L28 23L28 22L29 22L29 21L27 21L27 18L28 18L28 15L29 15L29 13L27 13L27 12L26 12L26 11L28 11L28 12L29 12L29 11L28 11L28 10L29 10L29 8L28 8L28 10L26 10L26 11L25 11L25 13L27 13L27 14L24 14L24 17L23 17L23 19L22 19L22 16L23 16L23 13L24 13L24 10L25 10L25 9L27 9L27 8L24 8L24 9L22 9L22 8L21 8L21 9L19 9L19 8L20 8L20 7L21 7L21 5L20 5L20 3L21 3L21 2L19 2L19 1L20 1L20 0ZM12 3L12 5L10 5L10 6L9 6L9 7L10 7L10 8L9 8L9 9L10 9L10 10L7 10L7 11L6 11L6 12L7 12L7 13L5 13L5 15L4 15L4 17L5 17L5 16L8 16L8 14L9 14L9 15L10 15L10 16L9 16L9 17L10 17L10 18L12 18L12 17L14 17L14 18L13 18L13 20L14 20L14 21L15 21L15 22L14 22L14 23L11 23L11 25L12 25L12 24L13 24L13 26L14 26L14 24L15 24L15 23L16 23L16 20L17 20L17 19L20 19L20 20L19 20L19 22L20 22L20 20L21 20L21 17L18 17L18 16L19 16L19 13L20 13L20 15L22 15L22 14L21 14L21 13L23 13L23 12L21 12L21 11L23 11L23 10L22 10L22 9L21 9L21 10L18 10L18 11L17 11L17 10L16 10L16 8L15 8L15 9L13 9L13 7L14 7L14 5L13 5L13 4L15 4L15 3ZM18 3L18 4L19 4L19 3ZM12 5L12 7L11 7L11 6L10 6L10 7L11 7L11 8L12 8L12 7L13 7L13 5ZM15 5L15 7L16 7L16 5ZM18 5L18 6L17 6L17 7L18 7L18 6L19 6L19 7L20 7L20 6L19 6L19 5ZM14 10L14 11L11 11L11 13L10 13L10 12L8 12L8 11L7 11L7 12L8 12L8 13L7 13L7 14L6 14L6 15L7 15L7 14L8 14L8 13L9 13L9 14L10 14L10 15L11 15L11 14L12 14L12 16L10 16L10 17L12 17L12 16L14 16L14 15L15 15L15 14L18 14L18 12L17 12L17 13L16 13L16 11L15 11L15 10ZM0 12L0 13L1 13L1 14L2 14L2 13L3 13L3 12ZM12 12L12 14L13 14L13 15L14 15L14 14L15 14L15 12ZM13 13L13 14L14 14L14 13ZM0 15L0 16L1 16L1 18L0 18L0 19L1 19L1 18L2 18L2 15ZM16 15L16 16L15 16L15 20L16 20L16 19L17 19L17 18L18 18L18 17L17 17L17 18L16 18L16 16L17 16L17 15ZM25 15L25 17L24 17L24 18L26 18L26 17L27 17L27 15ZM2 19L2 20L1 20L1 21L3 21L3 19ZM4 19L4 21L7 21L7 20L5 20L5 19ZM11 19L11 20L12 20L12 19ZM24 19L24 20L26 20L26 19ZM8 20L8 22L9 22L9 20ZM11 21L11 22L12 22L12 21ZM21 21L21 24L24 24L24 21ZM22 22L22 23L23 23L23 22ZM26 22L26 23L25 23L25 24L27 24L27 22ZM9 25L9 27L11 27L11 26L10 26L10 25ZM22 25L22 26L20 26L20 27L19 27L19 28L20 28L20 27L22 27L22 28L23 28L23 25ZM25 25L25 26L24 26L24 27L26 27L26 25ZM0 0L0 7L7 7L7 0ZM1 1L1 6L6 6L6 1ZM2 2L2 5L5 5L5 2ZM22 0L22 7L29 7L29 0ZM23 1L23 6L28 6L28 1ZM24 2L24 5L27 5L27 2ZM0 22L0 29L7 29L7 22ZM1 23L1 28L6 28L6 23ZM2 24L2 27L5 27L5 24Z" fill="#000000"/></g></g></svg>
