<?xml version="1.0" encoding="UTF-8"?>
<svg xmlns="http://www.w3.org/2000/svg" version="1.1" width="200" height="200" viewBox="0 0 200 200"><rect x="0" y="0" width="200" height="200" fill="#ffffff"/><g transform="scale(6.061)"><g transform="translate(2,2)"><path fill-rule="evenodd" d="M9 0L9 1L8 1L8 2L9 2L9 3L8 3L8 4L10 4L10 7L11 7L11 4L12 4L12 5L13 5L13 4L14 4L14 8L13 8L13 6L12 6L12 9L14 9L14 10L11 10L11 11L10 11L10 9L11 9L11 8L6 8L6 9L9 9L9 10L8 10L8 13L9 13L9 14L10 14L10 17L9 17L9 15L8 15L8 17L7 17L7 16L6 16L6 15L7 15L7 14L6 14L6 13L7 13L7 12L5 12L5 11L7 11L7 10L5 10L5 11L3 11L3 10L4 10L4 9L5 9L5 8L0 8L0 9L3 9L3 10L2 10L2 11L1 11L1 12L0 12L0 14L2 14L2 13L4 13L4 12L5 12L5 14L6 14L6 15L4 15L4 14L3 14L3 16L4 16L4 17L5 17L5 16L6 16L6 17L7 17L7 18L6 18L6 19L8 19L8 18L9 18L9 19L10 19L10 20L9 20L9 21L8 21L8 20L6 20L6 21L8 21L8 23L9 23L9 24L8 24L8 29L10 29L10 28L11 28L11 29L12 29L12 27L13 27L13 26L11 26L11 25L9 25L9 24L11 24L11 23L9 23L9 21L12 21L12 22L13 22L13 23L12 23L12 25L13 25L13 24L14 24L14 25L15 25L15 24L14 24L14 23L16 23L16 24L17 24L17 25L16 25L16 26L15 26L15 27L14 27L14 28L15 28L15 29L16 29L16 27L18 27L18 28L17 28L17 29L18 29L18 28L19 28L19 29L20 29L20 28L22 28L22 29L23 29L23 28L24 28L24 29L27 29L27 28L28 28L28 26L29 26L29 25L27 25L27 24L26 24L26 25L25 25L25 23L27 23L27 22L29 22L29 20L28 20L28 19L27 19L27 16L28 16L28 15L27 15L27 14L25 14L25 13L27 13L27 12L28 12L28 11L27 11L27 12L26 12L26 11L24 11L24 12L23 12L23 13L22 13L22 14L21 14L21 15L19 15L19 14L20 14L20 12L22 12L22 11L18 11L18 12L17 12L17 13L16 13L16 11L17 11L17 9L18 9L18 8L17 8L17 6L18 6L18 7L19 7L19 8L20 8L20 7L21 7L21 4L20 4L20 3L21 3L21 0L16 0L16 1L15 1L15 2L16 2L16 1L20 1L20 2L19 2L19 3L17 3L17 4L16 4L16 3L13 3L13 4L12 4L12 2L13 2L13 1L14 1L14 0L13 0L13 1L11 1L11 2L10 2L10 0ZM10 3L10 4L11 4L11 3ZM15 4L15 5L16 5L16 4ZM8 5L8 7L9 7L9 5ZM18 5L18 6L19 6L19 7L20 7L20 5ZM15 6L15 7L16 7L16 6ZM15 8L15 10L14 10L14 11L12 11L12 13L11 13L11 12L10 12L10 13L11 13L11 17L10 17L10 18L13 18L13 19L12 19L12 21L15 21L15 22L16 22L16 23L17 23L17 24L18 24L18 25L17 25L17 26L18 26L18 27L19 27L19 28L20 28L20 27L22 27L22 28L23 28L23 27L22 27L22 26L25 26L25 25L21 25L21 26L19 26L19 25L20 25L20 24L19 24L19 22L20 22L20 20L21 20L21 19L20 19L20 18L19 18L19 15L18 15L18 13L19 13L19 12L18 12L18 13L17 13L17 14L16 14L16 13L15 13L15 12L14 12L14 11L15 11L15 10L16 10L16 9L17 9L17 8ZM21 8L21 9L19 9L19 10L21 10L21 9L22 9L22 10L25 10L25 9L26 9L26 8L25 8L25 9L24 9L24 8L23 8L23 9L22 9L22 8ZM27 8L27 9L28 9L28 10L29 10L29 9L28 9L28 8ZM2 11L2 12L1 12L1 13L2 13L2 12L3 12L3 11ZM24 12L24 13L25 13L25 12ZM12 13L12 14L13 14L13 15L12 15L12 17L13 17L13 16L14 16L14 17L15 17L15 16L16 16L16 14L14 14L14 13ZM28 13L28 14L29 14L29 13ZM22 14L22 15L21 15L21 16L20 16L20 17L21 17L21 18L22 18L22 19L23 19L23 18L22 18L22 17L25 17L25 19L24 19L24 20L25 20L25 21L26 21L26 20L27 20L27 19L26 19L26 17L25 17L25 16L27 16L27 15L25 15L25 16L24 16L24 15L23 15L23 14ZM1 15L1 17L0 17L0 21L1 21L1 18L2 18L2 19L3 19L3 20L4 20L4 21L5 21L5 19L3 19L3 18L2 18L2 15ZM14 15L14 16L15 16L15 15ZM17 16L17 17L16 17L16 18L15 18L15 19L14 19L14 20L15 20L15 21L16 21L16 22L17 22L17 23L18 23L18 22L19 22L19 21L18 21L18 20L19 20L19 18L18 18L18 20L15 20L15 19L17 19L17 17L18 17L18 16ZM28 17L28 18L29 18L29 17ZM21 21L21 24L24 24L24 21ZM22 22L22 23L23 23L23 22ZM28 23L28 24L29 24L29 23ZM9 27L9 28L10 28L10 27ZM24 27L24 28L25 28L25 27ZM26 27L26 28L27 28L27 27ZM0 0L0 7L7 7L7 0ZM1 1L1 6L6 6L6 1ZM2 2L2 5L5 5L5 2ZM22 0L22 7L29 7L29 0ZM23 1L23 6L28 6L28 1ZM24 2L24 5L27 5L27 2ZM0 22L0 29L7 29L7 22ZM1 23L1 28L6 28L6 23ZM2 24L2 27L5 27L5 24Z" fill="#000000"/></g></g></svg>
