<?xml version="1.0" encoding="UTF-8"?>
<svg xmlns="http://www.w3.org/2000/svg" version="1.1" width="250" height="250" viewBox="0 0 250 250"><rect x="0" y="0" width="250" height="250" fill="#ffffff"/><g transform="scale(7.576)"><g transform="translate(2,2)"><g><g transform="translate(3.5,3.5)"><path fill-rule="evenodd" d="M-3.5 -3.5L3.5 -3.5L3.5 3.5L-3.5 3.5ZM-2.5 -2.5L-2.5 2.5L2.5 2.5L2.5 -2.5Z" fill="#000000"/><path fill-rule="evenodd" d="M-1.5 -1.5L1.5 -1.5L1.5 1.5L-1.5 1.5Z" fill="#000000"/></g></g><g><g transform="translate(25.5,3.5)"><g transform="rotate(90)"><path fill-rule="evenodd" d="M-3.5 -3.5L3.5 -3.5L3.5 3.5L-3.5 3.5ZM-2.5 -2.5L-2.5 2.5L2.5 2.5L2.5 -2.5Z" fill="#000000"/><path fill-rule="evenodd" d="M-1.5 -1.5L1.5 -1.5L1.5 1.5L-1.5 1.5Z" fill="#000000"/></g></g></g><g><g transform="translate(3.5,25.5)"><g transform="rotate(-90)"><path fill-rule="evenodd" d="M-3.5 -3.5L3.5 -3.5L3.5 3.5L-3.5 3.5ZM-2.5 -2.5L-2.5 2.5L2.5 2.5L2.5 -2.5Z" fill="#000000"/><path fill-rule="evenodd" d="M-1.5 -1.5L1.5 -1.5L1.5 1.5L-1.5 1.5Z" fill="#000000"/></g></g></g><path fill-rule="evenodd" d="M9 0L9 1L8 1L8 3L9 3L9 4L8 4L8 8L6 8L6 9L4 9L4 8L3 8L3 9L2 9L2 8L0 8L0 10L1 10L1 9L2 9L2 10L3 10L3 11L2 11L2 13L0 13L0 16L1 16L1 18L0 18L0 19L1 19L1 18L3 18L3 20L2 20L2 21L3 21L3 20L4 20L4 21L8 21L8 23L9 23L9 24L10 24L10 21L8 21L8 18L6 18L6 19L7 19L7 20L4 20L4 18L5 18L5 17L8 17L8 16L9 16L9 17L10 17L10 16L9 16L9 15L10 15L10 14L12 14L12 16L11 16L11 17L12 17L12 16L13 16L13 17L15 17L15 15L13 15L13 12L12 12L12 13L9 13L9 14L5 14L5 13L8 13L8 12L6 12L6 11L11 11L11 10L12 10L12 9L11 9L11 8L10 8L10 7L11 7L11 6L12 6L12 8L13 8L13 6L14 6L14 8L15 8L15 6L16 6L16 7L17 7L17 8L16 8L16 11L14 11L14 12L16 12L16 13L17 13L17 17L16 17L16 18L17 18L17 19L16 19L16 20L14 20L14 18L13 18L13 20L12 20L12 19L11 19L11 18L10 18L10 20L11 20L11 25L8 25L8 26L9 26L9 27L8 27L8 29L9 29L9 28L12 28L12 29L14 29L14 28L12 28L12 24L14 24L14 25L13 25L13 27L15 27L15 28L16 28L16 29L18 29L18 28L20 28L20 29L24 29L24 28L22 28L22 27L19 27L19 26L20 26L20 25L22 25L22 26L24 26L24 27L27 27L27 29L28 29L28 27L29 27L29 26L28 26L28 25L29 25L29 24L28 24L28 22L29 22L29 21L27 21L27 20L29 20L29 17L28 17L28 15L29 15L29 14L27 14L27 13L29 13L29 12L28 12L28 10L29 10L29 9L28 9L28 8L26 8L26 9L25 9L25 8L22 8L22 10L23 10L23 9L25 9L25 10L24 10L24 11L23 11L23 12L21 12L21 11L20 11L20 10L21 10L21 9L20 9L20 8L21 8L21 6L20 6L20 5L18 5L18 7L17 7L17 6L16 6L16 5L17 5L17 4L16 4L16 3L14 3L14 2L16 2L16 1L18 1L18 2L17 2L17 3L18 3L18 4L19 4L19 3L18 3L18 2L19 2L19 1L20 1L20 3L21 3L21 0L16 0L16 1L15 1L15 0L12 0L12 1L11 1L11 2L9 2L9 1L10 1L10 0ZM12 3L12 4L9 4L9 5L10 5L10 6L9 6L9 7L10 7L10 6L11 6L11 5L12 5L12 6L13 6L13 3ZM19 6L19 7L18 7L18 8L17 8L17 11L16 11L16 12L18 12L18 15L19 15L19 16L18 16L18 17L17 17L17 18L18 18L18 17L19 17L19 19L18 19L18 20L17 20L17 21L19 21L19 19L20 19L20 15L22 15L22 14L24 14L24 18L26 18L26 19L24 19L24 20L25 20L25 24L26 24L26 25L25 25L25 26L27 26L27 27L28 27L28 26L27 26L27 24L26 24L26 23L27 23L27 22L26 22L26 20L27 20L27 18L28 18L28 17L27 17L27 15L26 15L26 13L27 13L27 12L26 12L26 13L25 13L25 11L24 11L24 13L21 13L21 14L19 14L19 13L20 13L20 11L18 11L18 10L20 10L20 9L19 9L19 7L20 7L20 6ZM8 8L8 9L6 9L6 10L4 10L4 11L3 11L3 12L4 12L4 11L6 11L6 10L8 10L8 9L9 9L9 10L10 10L10 8ZM14 9L14 10L15 10L15 9ZM26 9L26 10L28 10L28 9ZM2 13L2 14L4 14L4 15L5 15L5 14L4 14L4 13ZM2 15L2 16L3 16L3 15ZM6 15L6 16L8 16L8 15ZM25 15L25 17L26 17L26 15ZM22 16L22 17L21 17L21 20L23 20L23 19L22 19L22 17L23 17L23 16ZM3 17L3 18L4 18L4 17ZM0 20L0 21L1 21L1 20ZM13 20L13 21L14 21L14 22L15 22L15 23L14 23L14 24L15 24L15 23L16 23L16 24L18 24L18 25L20 25L20 22L17 22L17 23L16 23L16 21L14 21L14 20ZM21 21L21 24L24 24L24 21ZM22 22L22 23L23 23L23 22ZM18 23L18 24L19 24L19 23ZM15 25L15 27L16 27L16 26L17 26L17 27L18 27L18 26L17 26L17 25ZM25 28L25 29L26 29L26 28Z" fill="#000000"/></g></g></svg>
