<?xml version="1.0" encoding="UTF-8"?>
<svg xmlns="http://www.w3.org/2000/svg" version="1.1" width="200" height="200" viewBox="0 0 200 200"><rect x="0" y="0" width="200" height="200" fill="#ffffff"/><g transform="scale(6.061)"><g transform="translate(2,2)"><path fill-rule="evenodd" d="M8 0L8 1L9 1L9 2L8 2L8 5L9 5L9 4L11 4L11 5L10 5L10 10L9 10L9 8L8 8L8 9L7 9L7 8L6 8L6 9L4 9L4 8L0 8L0 10L4 10L4 11L2 11L2 12L5 12L5 13L2 13L2 14L1 14L1 15L0 15L0 17L1 17L1 18L0 18L0 19L1 19L1 18L2 18L2 20L1 20L1 21L7 21L7 20L8 20L8 22L10 22L10 21L9 21L9 19L11 19L11 20L12 20L12 19L11 19L11 18L10 18L10 17L11 17L11 16L12 16L12 17L13 17L13 19L14 19L14 21L15 21L15 20L16 20L16 16L17 16L17 15L16 15L16 16L15 16L15 15L14 15L14 14L18 14L18 15L19 15L19 16L18 16L18 18L17 18L17 21L16 21L16 24L15 24L15 23L11 23L11 26L9 26L9 25L10 25L10 23L9 23L9 25L8 25L8 29L9 29L9 28L10 28L10 29L12 29L12 28L14 28L14 27L15 27L15 28L17 28L17 27L18 27L18 29L24 29L24 26L26 26L26 27L25 27L25 29L26 29L26 27L27 27L27 29L28 29L28 27L29 27L29 24L26 24L26 22L27 22L27 23L28 23L28 22L29 22L29 21L27 21L27 18L28 18L28 15L29 15L29 13L27 13L27 12L25 12L25 13L26 13L26 15L27 15L27 17L26 17L26 16L25 16L25 15L24 15L24 14L23 14L23 13L24 13L24 12L23 12L23 11L25 11L25 9L27 9L27 8L24 8L24 9L22 9L22 8L21 8L21 5L20 5L20 3L21 3L21 2L20 2L20 3L19 3L19 1L21 1L21 0L16 0L16 1L17 1L17 2L18 2L18 3L15 3L15 2L14 2L14 0L12 0L12 1L11 1L11 0L10 0L10 1L9 1L9 0ZM11 2L11 4L12 4L12 3L13 3L13 2ZM13 4L13 5L12 5L12 6L11 6L11 8L12 8L12 6L13 6L13 10L15 10L15 11L16 11L16 12L15 12L15 13L17 13L17 12L18 12L18 14L19 14L19 12L20 12L20 13L23 13L23 12L22 12L22 11L23 11L23 10L22 10L22 9L21 9L21 8L20 8L20 9L21 9L21 10L22 10L22 11L21 11L21 12L20 12L20 10L19 10L19 9L17 9L17 11L16 11L16 8L15 8L15 9L14 9L14 6L15 6L15 7L16 7L16 5L15 5L15 4ZM17 4L17 5L19 5L19 4ZM13 5L13 6L14 6L14 5ZM8 6L8 7L9 7L9 6ZM17 6L17 7L18 7L18 6ZM19 6L19 7L20 7L20 6ZM28 8L28 10L26 10L26 11L28 11L28 12L29 12L29 11L28 11L28 10L29 10L29 8ZM6 9L6 10L5 10L5 12L7 12L7 13L5 13L5 15L4 15L4 14L2 14L2 16L1 16L1 17L2 17L2 18L4 18L4 19L3 19L3 20L5 20L5 17L6 17L6 18L7 18L7 19L6 19L6 20L7 20L7 19L9 19L9 17L10 17L10 16L11 16L11 13L12 13L12 12L13 12L13 11L11 11L11 13L9 13L9 12L7 12L7 11L6 11L6 10L7 10L7 9ZM11 9L11 10L12 10L12 9ZM18 10L18 11L19 11L19 10ZM0 12L0 13L1 13L1 12ZM13 13L13 14L12 14L12 16L14 16L14 18L15 18L15 16L14 16L14 15L13 15L13 14L14 14L14 13ZM6 14L6 15L8 15L8 14ZM9 14L9 16L6 16L6 17L9 17L9 16L10 16L10 14ZM20 14L20 15L21 15L21 16L22 16L22 19L21 19L21 20L22 20L22 19L23 19L23 20L24 20L24 19L23 19L23 16L24 16L24 15L22 15L22 14ZM2 16L2 17L5 17L5 16ZM19 17L19 19L18 19L18 20L20 20L20 17ZM24 17L24 18L25 18L25 20L26 20L26 18L25 18L25 17ZM17 21L17 22L18 22L18 23L17 23L17 24L16 24L16 25L17 25L17 26L19 26L19 25L20 25L20 27L19 27L19 28L20 28L20 27L21 27L21 25L20 25L20 23L19 23L19 22L20 22L20 21L19 21L19 22L18 22L18 21ZM21 21L21 24L24 24L24 21ZM22 22L22 23L23 23L23 22ZM18 23L18 24L17 24L17 25L18 25L18 24L19 24L19 23ZM12 24L12 26L11 26L11 28L12 28L12 26L13 26L13 27L14 27L14 26L13 26L13 25L15 25L15 24ZM25 24L25 25L26 25L26 26L27 26L27 27L28 27L28 25L26 25L26 24ZM22 25L22 28L23 28L23 25ZM15 26L15 27L16 27L16 26ZM0 0L0 7L7 7L7 0ZM1 1L1 6L6 6L6 1ZM2 2L2 5L5 5L5 2ZM22 0L22 7L29 7L29 0ZM23 1L23 6L28 6L28 1ZM24 2L24 5L27 5L27 2ZM0 22L0 29L7 29L7 22ZM1 23L1 28L6 28L6 23ZM2 24L2 27L5 27L5 24Z" fill="#000000"/></g></g></svg>
